<?xml version="1.0" encoding="UTF-8" standalone="no"?>
<!-- Created with Inkscape (http://www.inkscape.org/) -->

<svg
   width="10in"
   height="10in"
   viewBox="0 0 10 10"
   version="1.1"
   id="svg1"
   sodipodi:docname="climatomaton icon.svg"
   inkscape:version="1.3.2 (091e20e, 2023-11-25, custom)"
   xml:space="preserve"
   inkscape:export-filename="climatomaton icon.png"
   inkscape:export-xdpi="102.4"
   inkscape:export-ydpi="102.4"
   xmlns:inkscape="http://www.inkscape.org/namespaces/inkscape"
   xmlns:sodipodi="http://sodipodi.sourceforge.net/DTD/sodipodi-0.dtd"
   xmlns="http://www.w3.org/2000/svg"
   xmlns:svg="http://www.w3.org/2000/svg"><sodipodi:namedview
     id="namedview1"
     pagecolor="#505050"
     bordercolor="#0000ff"
     borderopacity="1"
     inkscape:showpageshadow="true"
     inkscape:pageopacity="0"
     inkscape:pagecheckerboard="true"
     inkscape:deskcolor="#000000"
     inkscape:document-units="in"
     showgrid="true"
     inkscape:zoom="1.7113286"
     inkscape:cx="397.35209"
     inkscape:cy="514.51253"
     inkscape:window-width="3508"
     inkscape:window-height="2126"
     inkscape:window-x="321"
     inkscape:window-y="-11"
     inkscape:window-maximized="1"
     inkscape:current-layer="layer3"
     labelstyle="default"><inkscape:grid
       id="grid1"
       units="in"
       originx="0"
       originy="480"
       spacingx="0.1"
       spacingy="0.1"
       empcolor="#0099e5"
       empopacity="0.30196078"
       color="#0099e5"
       opacity="0.14901961"
       empspacing="10"
       dotted="true"
       gridanglex="30"
       gridanglez="30"
       visible="true" /></sodipodi:namedview><defs
     id="defs1"><radialGradient
       id="radialGradient3924"
       gradientUnits="userSpaceOnUse"
       cy="487.31"
       cx="388.41"
       gradientTransform="matrix(0.11583,0,0,0.10097,-12.727,-16.889)"
       r="267.21"
       inkscape:collect="always"><stop
         id="stop3639"
         style="stop-color:#94deec"
         offset="0" /><stop
         id="stop4438"
         style="stop-color:#7eeefe"
         offset="0" /><stop
         id="stop4436"
         style="stop-color:#3f98cb"
         offset=".625" /><stop
         id="stop3641"
         style="stop-color:#49bacd"
         offset="1" /></radialGradient><linearGradient
       id="linearGradient4492"
       y2="45"
       gradientUnits="userSpaceOnUse"
       x2="32"
       gradientTransform="translate(0.1875,-0.1875)"
       y1="3.875"
       x1="32.75"
       inkscape:collect="always"><stop
         id="stop4488"
         style="stop-color:#ffffff"
         offset="0" /><stop
         id="stop4490"
         style="stop-color:#ffffff;stop-opacity:0"
         offset="1" /></linearGradient></defs><g
     inkscape:label="Globe"
     inkscape:groupmode="layer"
     id="layer1"
     sodipodi:insensitive="true"><g
       id="layer1-8"
       inkscape:label="Globe"
       transform="matrix(0.02171966,0,0,0.02172161,-3.129373,-1.8470834)"
       style="stroke-width:0.479575"><a
         id="a7312"
         transform="matrix(0.23754,0,0,0.23754,315.92,169.76)"
         style="stroke-width:0.479575"><ellipse
           id="path1961"
           style="fill:#323ad3;stroke:#000000;stroke-width:7.74369"
           transform="matrix(1,0,0,0.98182,197.14,64.429)"
           cx="48.57143"
           cy="558.07648"
           rx="771.42859"
           ry="785.71429" /></a><path
         id="path3740"
         style="fill:#faf0f0;fill-rule:evenodd;stroke:#000000;stroke-width:0.911336"
         d="m 332.21,176.09 c -1.39,-4.7 -0.77,-9.31 5.43,-10.86 4.98,-1.25 8.8,0.51 13.57,-0.68 5.37,-1.34 9.88,-2.81 14.93,-4.07 5.17,-1.29 7.56,5.43 12.9,5.43 5.57,0 8.5,-2.81 13.57,-4.07 4.61,-1.16 9.18,4.12 10.18,8.14 1.62,6.49 3.44,8.19 8.14,12.89 4.07,4.07 -2.99,8.57 -4.07,12.9 -1.27,5.08 -3.03,12.31 -8.82,10.86 -5.88,-1.47 -6.61,5.61 -13.57,-1.36 -2.23,-2.22 -7.85,3.4 -12.22,3.4 -4.65,0 -9.03,-4.55 -12.9,-0.68 -3.54,3.54 -6.13,4.74 -11.53,2.03 -3.11,-1.55 -10.23,-3.91 -13.58,-4.75 -5.39,-1.35 -9.48,-2 -12.21,-7.46 -2.4,-4.79 3.24,-9.35 6.1,-12.22 2.91,-2.9 2.52,-5.61 4.08,-9.5 z" /><path
         id="path3742"
         sodipodi:nodetypes="csssssssssssssssssssssssssssssssssssssssssssssscsccsssssssssssssssssssssssssssssssss"
         style="fill:#399a3d;fill-rule:evenodd;stroke:#000000;stroke-width:0.911336"
         d="m 308.45,199.16 c 2.52,5.05 -1.21,9.7 2.72,14.93 3.89,5.19 6.07,9.53 12.89,6.11 6.83,-3.41 6.56,6.34 3.4,9.5 -1.31,1.31 -10.8,0 -12.9,0 -6.49,0 -9.2,-0.17 -12.89,4.76 -3.44,4.57 -7.91,5.91 -5.43,10.85 1.75,3.5 -0.04,10.93 -1.36,13.58 -2.22,4.43 -2.93,9.07 -0.68,13.57 2.15,4.3 9.5,7.79 9.5,0.68 0,-6.7 3.93,-6.64 8.15,-10.86 2.72,-2.72 -0.22,-10.65 3.39,-14.25 4.11,-4.11 6.5,6.89 7.46,8.82 2.71,5.41 3.66,8.17 8.15,11.54 3.36,2.52 4.65,10.76 7.46,13.57 4.27,4.26 -3.58,10.95 -4.07,12.9 -1.48,5.94 -6.72,5.17 -12.21,4.07 -7.21,-1.44 -7.21,-1.02 -11.54,4.75 -2.37,3.16 5.02,10.32 -3.39,6.11 -5.46,-2.73 -8.13,3.39 -12.22,5.43 -4.48,2.24 -9.87,-3.27 -11.54,3.39 -1.43,5.71 -1.28,10.23 -8.14,6.11 -4.78,-2.86 -7.97,4.4 -10.18,8.82 -2.86,5.71 1.45,9.12 -4.75,12.22 -7.48,3.74 -1.36,-5.35 -1.36,-8.14 0,-4.15 -5.63,-10.58 -7.47,-14.26 -2.69,-5.38 -5.12,-6.71 -10.86,-8.14 -6.68,-1.67 -9.23,2.86 -11.53,7.46 -2.19,4.37 0.43,9.12 -0.68,13.58 -1.42,5.65 4.68,8.86 8.82,6.79 5.61,-2.81 9.36,2.85 5.43,6.78 -4.37,4.37 -5.33,4.66 -0.68,10.86 5.47,7.29 3.39,1.65 3.39,10.86 v 8.14 c 0,2.65 -0.35,5.48 3.48,7.81 4.65,2.82 6.9,4.55 11.84,3.56 4.21,-0.84 7.04,0.83 10.47,2.21 4.87,1.94 7.39,7.69 11.54,10.18 5.31,3.18 9.47,5.28 14.93,7.46 4.18,1.67 9.62,4 12.22,7.47 3.04,4.06 7.17,8.09 10.86,10.86 4.33,3.25 9.57,4.15 13.57,8.14 3.73,3.73 7.39,3.97 11.54,9.5 3.9,5.21 9.34,5.69 14.25,8.15 4.28,2.14 7.45,-6.81 12.9,-1.36 2.84,2.84 7.41,6.58 8.14,9.5 1.37,5.46 -5.81,7.47 -9.5,7.47 -2.89,0 -0.39,0.59 -1.36,2.04 -3.64,0 -2.04,8.14 -5.43,9.5 -1.62,0.65 -3.95,0.99 -5.43,1.35 h -3.39 c -0.9,-0.22 -1.81,-0.45 -2.71,-0.67 -2.93,-0.74 -10.7,4.66 -13.58,6.1 -3.63,1.82 -9.87,1.08 -13.66,2.97 -15.67,-4.95 -32.06,-12.22 -46.15,-20.53 -0.48,-0.34 1.54,-12.79 0.09,-15.69 -2.26,-4.51 -6.4,-9.07 -10.86,-10.18 -5.99,-1.5 -9.63,-8.65 -10.86,-13.58 -1.34,-5.36 -3.18,-10.07 -7.47,-12.21 -7.2,-3.6 -0.64,-8.5 2.72,-10.18 4.8,-2.4 6.51,-8.89 3.39,-12.22 -5.15,-5.51 -7.26,-3.8 -11.54,-5.94 -3.51,-1.75 -6.42,-3.46 -7.46,-7.63 -1.14,-4.57 -3.58,-8.89 -4.75,-13.58 -1.17,-4.69 -2.27,-9.05 -3.4,-13.57 -0.52,-2.1 -7.14,-9.98 -8.82,-12.22 -3.73,-14.42 -7.43,-24.41 -7.42,-27.27 0.02,-9.19 3.17,-5.79 3.05,-10.05 -0.2,-7.55 0.04,-10.59 1.57,-15.53 0.92,-2.97 2.51,-4.64 1.44,-8.91 -1.3,-5.21 -0.52,-9.81 1.62,-14.08 2.58,-5.17 3.56,-5.34 3.56,-11.67 0,-7.15 6.14,-13.16 12.47,-16.33 5.57,-2.78 9.7,-7.56 14.93,-10.18 4.62,-2.3 11.71,-5.08 14.25,-10.18 2.3,-4.59 4.54,-9.07 6.79,-13.57 0.78,-1.55 -0.39,-3.11 0.34,-4.54 3.59,-7 2.98,-6.24 10.52,-11.07 3.36,-3.36 8.82,-8.68 8.82,-13.57 0,-5.49 -2.11,-8.75 2.04,-12.9 2.03,-2.03 10.82,-0.68 13.57,-0.68 6.17,0 8.29,0.69 13.58,2.8 7.33,2.93 0.17,7.8 -3.23,11.2 -8.68,6.08 -11.28,8.57 -10.35,21.29 z" /><path
         id="path5518"
         sodipodi:nodetypes="cssssssssssssssssssssc"
         style="fill:#299d3d;fill-rule:evenodd;stroke:#000000;stroke-width:0.911336"
         d="m 355.28,214.43 c -0.79,1.25 -1.58,2.49 -2.37,3.74 -1.75,2.74 1.4,0.63 3.05,4.75 1.15,2.86 -0.25,4.5 0.34,7.46 0.64,3.19 2.92,5.7 3.39,9.17 0.17,1.21 -2.89,5.12 -3.73,6.1 -3.06,3.61 -1.31,9.13 -2.04,13.58 -0.73,2.93 3.4,5.97 3.4,8.82 0,2.27 2.89,3.05 4.75,3.05 3.59,0 3.83,-0.42 4.75,-2.71 0.71,-1.77 0.99,-5.75 2.71,-6.79 1.21,-0.72 5.43,-3.46 5.43,-4.75 0,-2.56 3.95,-4.97 5.77,-6.78 2.05,-2.05 4.84,-3.61 7.13,-4.76 3.35,-1.67 4.41,-2.71 4.41,-6.44 0,-2.45 -3.57,-5.91 -3.05,-8.49 0.55,-2.75 -0.63,-7.3 -2.04,-9.16 -2.33,-3.07 -2.51,-4.26 -3.05,-7.8 -0.44,-2.85 -1.71,-3.73 -4.42,-2.38 -3.11,1.56 -5.03,2.38 -8.48,2.38 -2.05,0 -4.23,-0.34 -6.45,-0.34 -3.55,1.71 -5.61,1.22 -9.5,1.35 z" /><path
         id="path5522"
         sodipodi:nodetypes="csssssssssssssssssssssssssccssssssssssssssssssssssssssssssscssssscscccssssssssssssssssssssssssssz"
         style="fill:#2d913e;fill-rule:evenodd;stroke:#000000;stroke-width:0.911336"
         d="m 433.05,212.22 c -4.07,-0.98 -4.31,0.31 -7.3,6.28 -2.63,9.71 1.29,8.51 2.38,13.07 0.96,4 3.39,9.23 3.39,13.23 0,5.59 0.98,10.85 6.45,12.22 6.55,1.63 6.4,2.03 12.73,2.03 7,0 3.61,-8.37 2.03,-11.53 -2.49,-4.98 -4.79,-8.69 -9.5,-12.22 -2.92,-2.19 -0.93,-9.33 3.39,-0.68 3.05,6.09 6.25,7.54 11.54,10.18 5.94,2.97 3.83,9.74 0.68,12.9 -3.75,3.75 -6.43,5.75 -10.18,9.5 -2.31,2.31 -1.9,10.33 -2.71,13.57 -1.3,5.18 -7.37,7.57 -3.4,11.54 3.77,3.76 8.76,1.18 5.43,9.5 -2.35,5.89 -5.62,5.23 -9.5,8.14 -4.82,3.62 -3.24,7.1 -0.68,12.22 2.73,5.46 1.45,7.47 8.82,7.47 7.03,0 7.16,1.66 12.22,-3.4 2.3,-2.3 -0.74,-10.44 0,-13.4 2.02,-8.08 5.22,-3.08 2.04,-11.03 -1.52,-3.79 3.89,-9.67 7.97,-9.67 4.1,0 11.63,6.85 16.63,5.6 7.3,-1.83 -1.95,-8.15 -5.6,-8.15 -4.75,0 -12.47,-3.33 -4.07,-5.43 5.51,-1.37 3.1,-1.94 10.01,-0.17 2.92,0.75 3.11,2.2 5.22,4.79 1.6,1.96 3.04,1.33 6.49,-0.03 1.11,-4.82 -3.48,-3.86 -3.66,-6.61 -0.21,-3.16 2.79,-4.38 3.66,-6.12 2.05,-4.12 -4.19,-8.44 -5.09,-12.05 -1.14,-4.53 -2.38,-17.3 2.88,-17.3 5.35,0 13.58,1.55 15.1,7.63 1.33,5.31 -6.11,9.17 -8.14,14.25 -1.92,4.79 -4.11,9.47 -0.68,12.9 3.46,3.46 5.43,-6.88 5.43,1.36 0,5.47 7.14,-7.53 7.46,-8.83 1.88,-7.5 5.43,3.03 5.43,6.79 0,5.39 -1.51,9.94 -4.75,14.25 -3.53,4.71 -7.51,4.85 -10.18,10.18 -3.24,6.49 -0.67,7.46 -7.46,10.86 -4.37,2.19 -11.04,0.5 -13.58,-2.03 -5.16,-5.16 -5.87,-4.2 -10.86,2.03 -3.68,4.61 -7.09,7.1 -10.86,10.86 -3.91,3.92 -9.77,4.62 -12.21,9.5 -2.16,4.32 -5.15,9.94 -4.07,14.26 1.4,5.6 -3.33,9.43 -6.79,12.89 -3.41,3.41 -5.06,10.06 -6.11,14.25 -1.67,6.69 0.02,6.82 2.71,12.22 1.19,2.37 -2.94,10.86 -3.39,13.57 -0.39,2.33 8.73,8.64 10.18,11.54 1.92,3.84 9.18,1.04 12.22,4.07 2.6,2.61 10.24,-0.82 12.89,-1.35 5.42,-1.09 8.38,-4.39 13.58,-5.43 3.07,-0.62 6.6,-6.7 10.86,-8.83 4.81,-2.4 8.67,-2.64 12.89,-4.75 3.44,-1.72 -3.44,9.82 0,11.54 4.79,2.39 7.76,2.9 6.11,9.5 -1.05,4.21 -2.99,7.46 -4.41,11.37 -3.19,8.75 -0.81,5.89 -1.02,12.05 14.76,-17.83 16.71,-19.4 28.5,-39.03 11.54,-21.01 18.31,-39.62 21.04,-65.15 0.48,-4.41 0.68,-8.96 0.68,-13.58 0,-4.38 0.54,-11.92 -3.39,-13.57 -8.46,-3.56 -7.96,-5.62 -16.29,-8.14 -3.96,-1.98 -10.55,-8.43 -9.5,-12.9 4.01,-0.64 8.41,3.99 12.26,6.47 4.04,2.59 4.8,7.97 11.15,9.82 2.8,-2.37 -4.03,-30.78 -2.03,-34.78 -1.53,-10.95 -13.97,-34.46 -11.37,-40.22 -12.73,-21.52 -15.75,-27.35 -31.9,-45.47 -14,-15.7 -31.11,-27.14 -50.05,-36.65 -22.82,-10.22 -43.82,-15.99 -69.23,-15.61 -5.92,-0.58 -5.43,5.09 -12.21,5.09 -5.2,0 -8.19,-2.7 -13.58,-1.35 -1.39,0.34 -2.71,0.9 -4.07,1.35 -5.07,1.69 -7.44,9.09 -12.22,2.72 -0.71,-0.96 16.54,-3.95 6.79,-8.82 -5.11,-2.56 -11.48,5.95 -8.82,9.5 1.52,2.03 -2.91,6.11 -8.83,6.11 -5.12,0 -10.16,-0.62 -8.82,4.75 1.35,5.4 5.71,-0.89 -2.71,5.43 -5.09,3.81 7.94,1.61 9.5,0.67 4.67,-2.8 8.03,-3.39 13.57,-3.39 4.11,0 8.66,-3.22 12.9,-4.07 5.94,-1.19 10.4,1.13 14.93,3.39 2,1 11.01,-1.77 12.89,-2.71 7.52,-3.76 3.72,1.32 5.43,4.75 1.13,2.25 8.41,1.88 10.86,6.78 3.04,6.07 0.62,8.12 7.47,11.54 0.41,0.21 6.9,-2.29 13.57,2.72 4.43,3.32 8.31,1.58 12.22,6.78 0.87,1.16 2.23,2.03 2.71,3.4 1.76,4.99 -1.04,1.98 2.38,6.62 0.68,0.92 2.43,-0.29 3.39,4.75 1.9,9.93 9.36,12.94 6.62,16.96 -2.41,3.54 -2.7,0.72 -11.37,-3.9 -0.45,-0.11 -1.2,-0.68 -1.36,-0.68 -1.1,0 -1.91,-0.68 -2.88,-0.68 z" /></g></g><g
     inkscape:groupmode="layer"
     id="g4"
     inkscape:label="Darken  Overlay"
     style="display:inline;mix-blend-mode:multiply"
     sodipodi:insensitive="true"><path
       id="path3"
       style="fill:#ffff40;fill-opacity:1;stroke-width:0.04;stroke-linecap:square;paint-order:markers fill stroke"
       d="M 6.8823242,1.4706828 5,9 A 4,4 0 0 0 9,5 4,4 0 0 0 6.8823242,1.4706828 Z"
       inkscape:label="Right Wedge" /><path
       id="path4"
       style="fill:#ffffff;fill-opacity:1;stroke-width:0.04;stroke-linecap:square;paint-order:markers fill stroke"
       d="M 3.1201579,1.4806112 A 4,4 0 0 0 1,5 4,4 0 0 0 5,9 Z"
       inkscape:label="Left Wedge" /></g><g
     inkscape:groupmode="layer"
     id="layer2"
     inkscape:label="Lighten Overlay"
     style="display:inline;mix-blend-mode:lighten"
     sodipodi:insensitive="true"><path
       id="path2"
       style="fill:#ff8000;fill-opacity:1;stroke-width:0.04;stroke-linecap:square;paint-order:markers fill stroke"
       d="M 6.8823242,1.4706828 5,9 A 4,4 0 0 0 9,5 4,4 0 0 0 6.8823242,1.4706828 Z"
       inkscape:label="Right Wedge" /><path
       id="rect1"
       style="fill:#4080ff;fill-opacity:1;stroke-width:0.04;stroke-linecap:square;paint-order:markers fill stroke"
       d="M 3.1201579,1.4806112 A 4,4 0 0 0 1,5 4,4 0 0 0 5,9 Z"
       inkscape:label="Left Wedge" /></g><g
     inkscape:groupmode="layer"
     id="layer3"
     inkscape:label="Icons"
     style="mix-blend-mode:normal"><g
       id="g37261"
       transform="matrix(0.01702017,0,0,0.01529243,3.0346099,-16.835632)"
       style="stroke-width:1.18007"><path
         id="path35855"
         d="m 136.5,1266.7 -26.5,2.5 c 0,0 3.2844,86.277 -2,100.5 -0.3482,0.9372 -2.3222,1.0173 -2.6875,1.875 l 41.656,0.6563 c -1.7299,-0.6215 -3.2093,-1.1635 -3.9688,-1.5313 -3.637,-1.7617 -4.6834,-4.8326 -6,-10.5 -2.4471,-10.534 -0.5,-93.5 -0.5,-93.5 z"
         sodipodi:nodetypes="ccscccsc"
         style="fill:#5b3700;fill-rule:evenodd;stroke:#2f1a00;stroke-width:1.18007px"
         inkscape:connector-curvature="0" /><g
         id="g36659"
         transform="translate(2.5355,-54.891)"
         style="stroke-width:1.18007"><path
           id="path36655"
           style="fill:none;stroke:#2f1a00;stroke-width:1.18007px"
           sodipodi:nodetypes="czzzz"
           inkscape:connector-curvature="0"
           d="m 117,1375.7 c 0,0 -1.8059,5.2336 -3.5,5 -1.6941,-0.2336 -1.7519,-3.5293 -1.75,-5 0.002,-1.4707 0.84483,-3.6818 1.5,-4.25 0.65517,-0.5682 1.25,-0.25 1.25,-0.25" /><path
           id="path36657"
           style="fill:none;stroke:#2f1a00;stroke-width:1.18007px"
           sodipodi:nodetypes="czzzzz"
           inkscape:connector-curvature="0"
           d="m 113.53,1377.7 c 0,0 2.4515,-2.3585 2.3423,-3.2703 -0.10917,-0.9118 -0.92737,-1.537 -1.591,-1.3701 -0.66362,0.1669 -1.1893,1.9314 -0.88388,2.2981 0.30541,0.3667 0.55663,0.092 0.70711,-0.1325 0.15048,-0.2247 -0.22097,-1.0607 -0.22097,-1.0607" /></g><g
         id="g36806"
         style="fill:#2a2322;fill-opacity:0.66355;stroke-width:1.18007"><path
           id="path36797"
           d="m 129.11,1311.5 c 0.003,-1.1212 0.003,-2.2423 0.003,-3.3635 0.006,-1.147 -0.007,-2.294 -0.007,-3.4409 0.0113,-0.8016 0.0109,-1.6031 0.0109,-2.4048 0,-0.045 0.27013,-0.2103 0.27014,-0.1655 5e-5,0.7972 -4.5e-4,1.5943 0.0109,2.3914 -5e-4,1.15 -0.0137,2.2999 -0.007,3.4499 2.7e-4,1.1199 -3.1e-4,2.2398 0.003,3.3597 1.5e-4,0.047 -0.28366,0.2207 -0.28351,0.1737 z"
           style="fill:#2a2322;fill-opacity:0.66355;stroke-width:1.18007"
           inkscape:connector-curvature="0" /><path
           id="path36773"
           d="m 133.61,1311.9 c -0.1353,1.1771 -0.26532,2.3539 -0.34838,3.5344 -0.10663,1.8323 -0.11732,3.6672 -0.12792,5.5013 -0.006,1.6224 -0.003,3.2449 -0.001,4.8673 l 0.003,3.6186 c -0.011,0.928 -0.009,1.8533 0.0712,2.779 0.0817,1.0356 0.28503,2.061 0.31424,3.0993 0.0212,0.6173 -0.0492,1.2212 -0.21419,1.8215 -0.016,0.064 -0.032,0.1284 -0.0481,0.1926 -0.009,0.038 -0.29629,0.1753 -0.28693,0.1376 0.016,-0.064 0.0319,-0.1288 0.0479,-0.1932 0.16647,-0.5994 0.24514,-1.2013 0.22352,-1.8184 -0.0251,-1.0383 -0.23052,-2.0629 -0.31354,-3.0982 -0.0813,-0.9264 -0.0849,-1.8523 -0.0715,-2.781 5.4e-4,-1.2067 5.6e-4,-2.4135 -1.1e-4,-3.6203 -3.5e-4,-1.6233 -6.9e-4,-3.2466 0.006,-4.8699 0.0107,-1.8339 0.02,-3.6685 0.12384,-5.5009 0.0806,-1.179 0.20986,-2.3541 0.33675,-3.5302 0.004,-0.038 0.28933,-0.1777 0.28493,-0.1395 z"
           style="fill:#2a2322;fill-opacity:0.66355;stroke-width:1.18007"
           inkscape:connector-curvature="0" /><path
           id="path36779"
           d="m 125.86,1347.9 c -0.16534,1.9767 -0.44092,3.9235 -0.72215,5.8643 -0.32859,2.1472 -0.64553,4.2984 -0.96092,6.4506 -0.13111,0.9451 -0.27942,1.8849 -0.45758,2.8099 -0.0894,0.3762 -0.0452,0.1913 -0.13252,0.5545 -0.0105,0.044 -0.18975,0.2064 -0.17921,0.1627 0.0874,-0.3629 0.0429,-0.1786 0.13361,-0.5529 0.17954,-0.9258 0.33097,-1.8659 0.46291,-2.8123 0.31935,-2.1527 0.63683,-4.3059 0.96589,-6.455 0.27982,-1.9361 0.55473,-3.8784 0.71368,-5.8514 0.004,-0.047 0.18017,-0.2168 0.17629,-0.1704 z"
           style="fill:#2a2322;fill-opacity:0.66355;stroke-width:1.18007"
           inkscape:connector-curvature="0" /><path
           id="path36781"
           d="m 116.89,1341.3 c 0.0233,1.6271 -0.11227,3.25 -0.22794,4.8714 -0.14439,2.1383 -0.33156,4.2727 -0.43874,6.4135 -0.0711,1.556 -0.0834,3.1138 -0.0893,4.6712 -2.2317,6.5797 -1.466,7.2344 -0.27683,0.1695 0.007,-1.5587 0.0211,-3.1178 0.0927,-4.675 0.1089,-2.1415 0.298,-4.2765 0.44107,-6.4157 0.11358,-1.6179 0.24895,-3.2377 0.21561,-4.8611 -9.7e-4,-0.047 0.28284,-0.2208 0.28351,-0.1738 z"
           sodipodi:nodetypes="cccccccsc"
           style="fill:#2a2322;fill-opacity:0.66355;stroke-width:1.18007"
           inkscape:connector-curvature="0" /><path
           id="path36783"
           d="m 117.69,1299.6 c 0.16109,1.8364 0.31662,3.6735 0.46272,5.5114 0.17698,2.2237 0.39852,4.441 0.72915,6.6473 0.14768,0.9466 0.3286,1.8875 0.50962,2.8282 0.009,0.044 -0.2241,0.2646 -0.23262,0.2202 -0.18063,-0.9416 -0.36107,-1.8832 -0.50914,-2.8306 -0.33036,-2.2073 -0.55057,-4.4259 -0.72892,-6.6505 -0.14625,-1.8344 -0.30125,-3.668 -0.47395,-5.5 -0.004,-0.047 0.23905,-0.2726 0.24314,-0.226 z"
           style="fill:#2a2322;fill-opacity:0.66355;stroke-width:1.18007"
           inkscape:connector-curvature="0" /><path
           id="path36785"
           d="m 111.93,1334.6 c -0.008,1.6387 0.01,3.2773 -0.0361,4.9155 -0.15554,2.0085 -0.0754,4.012 0.0727,6.0168 0.0189,0.2446 0.0379,0.4891 0.0569,0.7337 0.004,0.046 -0.27113,0.2167 -0.27455,0.1711 -0.0184,-0.245 -0.0367,-0.4899 -0.0551,-0.7349 -0.14515,-2.0065 -0.22695,-4.0115 -0.071,-6.0216 0.0455,-1.6353 0.027,-3.271 0.0237,-4.9068 -1e-4,-0.047 0.28374,-0.2208 0.28351,-0.1738 z"
           style="fill:#2a2322;fill-opacity:0.66355;stroke-width:1.18007"
           inkscape:connector-curvature="0" /><path
           id="path36793"
           d="m 121.95,1315.8 c -0.069,1.1101 -0.14814,2.2182 -0.23295,3.3265 -0.0836,0.7819 -0.0655,1.5772 -0.14046,2.359 -0.073,0.5102 -0.12496,1.0235 -0.1519,1.5415 0.0441,0.8088 0.31387,1.574 0.54192,2.3177 0.31085,0.8658 0.54582,1.7657 0.68292,2.7061 0.0967,0.6164 0.0909,1.1297 -0.0521,1.7256 -0.13973,0.5546 -0.31185,1.0946 -0.47086,1.6402 -0.21919,0.7765 -0.37274,1.5771 -0.5092,2.3848 -0.17947,0.954 -0.34142,1.9124 -0.49537,2.8739 -0.16823,0.8275 -0.30261,1.6654 -0.47172,2.4923 -0.11493,0.5242 -0.16022,1.0651 -0.18229,1.6079 -0.002,0.083 -0.004,0.1659 -0.006,0.2488 -0.001,0.047 -0.2158,0.2197 -0.21469,0.1728 0.002,-0.083 0.004,-0.1663 0.006,-0.2495 0.0214,-0.545 0.0653,-1.0883 0.18058,-1.6147 0.17016,-0.8268 0.30588,-1.6646 0.47447,-2.4923 0.15409,-0.9614 0.31454,-1.92 0.49467,-2.8737 0.1354,-0.8087 0.28825,-1.6102 0.50597,-2.388 0.15857,-0.5451 0.32929,-1.085 0.47069,-1.6379 0.14508,-0.5928 0.15625,-1.0967 0.0598,-1.7125 -0.13426,-0.9394 -0.36709,-1.8385 -0.6783,-2.7023 -0.23016,-0.7476 -0.50161,-1.5151 -0.55139,-2.3275 0.0262,-0.5187 0.0767,-1.0331 0.15168,-1.5437 0.0793,-0.7817 0.058,-1.5787 0.14421,-2.3608 0.0855,-1.1073 0.16594,-2.2142 0.22861,-3.324 0.003,-0.047 0.21891,-0.2171 0.21599,-0.1702 z"
           style="fill:#2a2322;fill-opacity:0.66355;stroke-width:1.18007"
           inkscape:connector-curvature="0" /><path
           id="path36795"
           d="m 112.64,1325.6 c -0.0382,0.9377 0.26873,1.8311 0.75073,2.6224 0.38555,0.6508 0.8969,1.1986 1.4231,1.7338 0.35619,0.4116 0.6803,0.8395 0.88655,1.3453 0.16354,0.4771 0.18076,0.9832 0.19355,1.4824 0.007,0.5005 0.002,1.001 -5.7e-4,1.5015 -0.0456,0.4593 0.0677,0.8995 0.14626,1.3471 0.008,0.046 -0.27273,0.2253 -0.28082,0.1789 -0.0784,-0.4495 -0.19489,-0.8913 -0.14886,-1.3525 0.002,-0.5002 0.007,-1.0005 0.001,-1.5007 -0.012,-0.4955 -0.0271,-0.998 -0.187,-1.4724 -0.20298,-0.5026 -0.52572,-0.9261 -0.87835,-1.3351 -0.52694,-0.5379 -1.039,-1.0885 -1.4252,-1.7416 -0.48443,-0.7951 -0.79546,-1.6935 -0.76354,-2.6357 0.002,-0.047 0.28496,-0.2203 0.28305,-0.1734 z"
           style="fill:#2a2322;fill-opacity:0.66355;stroke-width:1.18007"
           inkscape:connector-curvature="0" /><path
           id="path36775"
           d="m 129.65,1323.7 c -0.10429,2.2722 -0.12846,4.5494 -0.15316,6.8254 -0.0316,3.6771 -0.0325,7.3545 -0.0347,11.032 -0.003,3.3435 -0.0169,6.6862 0.0533,10.028 0.0615,2.7049 0.30681,5.3881 0.7229,8.0283 0.37365,2.1916 1.0112,4.2648 1.5412,6.3845 0.29411,1.134 0.50165,2.303 0.70051,3.475 0.0271,0.1425 0.0542,0.285 0.0812,0.4275 0.008,0.041 -0.17053,0.2031 -0.17827,0.1624 -0.0271,-0.1428 -0.15233,-0.5551 -0.0814,-0.4283 2.1069,3.7647 -0.38568,-2.3046 -0.69457,-3.4762 -0.5769,-2.0953 -1.1651,-4.1935 -1.5561,-6.3757 -0.41701,-2.6421 -0.66323,-5.3273 -0.72398,-8.0343 -0.0676,-3.3441 -0.0521,-6.6885 -0.0485,-10.034 0.002,-3.6764 0.003,-7.353 0.0313,-11.029 0.0226,-2.2715 0.0445,-4.544 0.13856,-6.8124 0.002,-0.047 0.20385,-0.2203 0.2017,-0.1734 z"
           sodipodi:nodetypes="ccscccssccscccscsc"
           style="fill:#2a2322;fill-opacity:0.66355;stroke-width:1.18007"
           inkscape:connector-curvature="0" /></g><g
         id="g36799"
         style="stroke-width:1.18007"><g
           id="g3616"
           transform="translate(-1,-16)"
           style="stroke-width:1.18007"><path
             id="path3608"
             d="m 43.485,1297.3 c 5.0504,-15.505 12.332,-10.815 6.5768,-12.493 -20.381,-7.5425 -24.408,-32.643 -18.858,-54.809 4.1283,-14.691 27.705,-28.272 29.244,-28.442 -0.31886,-1.3649 -0.4297,-3.8585 -0.47487,-4.3852 -1.2669,-14.772 4.8961,-31.277 25.647,-42.44 20.7509,-11.163 59.548,-0.5936 63.666,19.921 16.939,-1.3835 47.002,10.944 53.492,33.076 6.6264,22.597 -15.525,41.762 -15.137,45.743 0.41168,4.2315 18.832,22.934 2.0074,48.888 -16.678,25.728 -38.749,15.609 -49.53,3.9712 -18.285,20.422 -91.699,26.524 -96.633,-9.0304 z"
             sodipodi:nodetypes="ccccszczzzcc"
             style="fill:#256603;fill-rule:evenodd;stroke:#0c3d26;stroke-width:1.18007px"
             inkscape:connector-curvature="0" /><path
             id="path3610"
             d="m 141.7,1211.6 c 37.543,0.7644 14.01,61.848 -8.434,46.624"
             sodipodi:nodetypes="cc"
             style="fill:none;stroke:#0c3d26;stroke-width:1.18007px"
             inkscape:connector-curvature="0" /><path
             id="path3612"
             sodipodi:nodetypes="cc"
             d="m 60.427,1201.5 c 4.6189,20.45 24.732,24.299 33.912,14.361"
             inkscape:transform-center-x="-8.896945"
             inkscape:transform-center-y="6.2313313"
             inkscape:connector-curvature="0"
             style="fill:none;stroke:#0c3d26;stroke-width:1.18007px" /></g><path
           id="path36649"
           style="fill:#256603;fill-rule:evenodd;stroke:#0c3d26;stroke-width:1.18007px"
           sodipodi:nodetypes="cccc"
           inkscape:connector-curvature="0"
           d="m 81,1262.2 c -17.024,9.256 -17.268,33.92 6.4734,34.962 -4.5663,18.691 25.214,32.043 36.527,1.8343 32.57,40.973 63.71,-12.489 36.5,-32.522" /></g><path
         id="path36049"
         d="m 109.34,1363.9 c -0.42409,0.6185 -1.0653,1.8092 -1.2606,1.9368 -9.4232,6.1531 -9.7074,6.4145 -8.904,6.7252 3.9066,0.6346 7.2838,0.1206 6.8059,-0.8839 -0.071,1.1196 -0.28304,2.2392 0.0884,3.3588 4.4993,-0.1628 8.8945,-0.395 11.314,-1.9446 -0.97478,0.8355 9.9443,6.2246 11.667,4.9498 1.0248,-0.7582 2.1213,-2.8285 2.1213,-2.8285 3.3592,0.1787 6.9474,1.2732 10.076,0.5304 1.4876,-0.3306 -1.3628,-3.3238 -1.2374,-3.0052 0.40464,1.0285 8.4878,0.956 9.7669,-0.7955 0.2523,0.08 -7.7685,-2.7259 -9.7669,-4.1543 -0.69811,-0.4029 -0.60784,-0.4981 -0.88389,-0.7955"
         sodipodi:nodetypes="csccccsccsccc"
         style="fill:none;stroke:#2f1a00;stroke-width:1.17914;stroke-linecap:round"
         inkscape:connector-curvature="0" /><path
         id="path36821"
         d="m 136.88,1364.9 c -0.88857,0.1405 -0.55529,2.3932 -1.3374,2.5085 -5.1848,0.765 -8.8919,0.8275 -22.531,-1.8119 -0.19911,-0.038 -3.1474,-3.6104 -3.1478,-3.3924 -0.002,1.2682 -0.23814,2.7503 -1.3357,3.6604 -7.8114,4.8389 -9.1251,6.0227 -9.125,6.3716 3.9066,0.6346 7.4606,0.1648 6.9827,-0.8397 -0.0208,0.6173 -0.5253,1.8334 -0.22097,3.624 4.0954,-0.6475 8.7321,-0.59 11.314,-1.9446 -0.51758,0.6069 10.43,5.9819 11.667,4.9498 0.97897,-0.8165 2.1213,-3.2262 2.1213,-3.2262 3.3592,0.5364 6.9474,1.7451 10.076,0.9281 1.4876,-0.3306 -1.4791,-3.2477 -1.2374,-3.0052 1.4211,1.4262 9.7694,1.0002 9.5901,-0.9723 -4.7416,-1.1134 -8.0337,-2.2397 -10.032,-3.6681 -0.60972,-0.6681 -2.685,-2.6637 -2.7842,-3.182 z"
         sodipodi:nodetypes="cssscccccsccsccc"
         style="fill:#5b3700;fill-rule:evenodd;stroke-width:1.18007"
         inkscape:connector-curvature="0" /></g><g
       id="g4494"
       transform="matrix(0.04869577,0,0,0.04862078,0.42443301,2.7933035)"
       style="stroke-width:0.214078"><path
         id="rect2830"
         style="fill:url(#radialGradient3924);stroke:#000000;stroke-width:0.137596"
         d="m 16.896,5.6557 -1.256,2.7474 3.6487,6.3417 -6.6458,-0.0181 -1.4624,2.8596 1.2922,2.2587 9.9107,0.2751 5.6359,9.784 -11.203,0.0072 -4.6948,-8.224 -3.236,-0.0036 -1.1366,2.3492 3.3627,5.8494 H 3.2134 l -1.5818,2.6351 1.5818,2.7546 h 7.4312 l -3.2179,5.0893 1.3429,2.722 3.0333,0.03982 4.7201,-7.8511 h 11.384 l -5.321,9.2375 -9.4691,-0.03982 -1.618,2.8016 1.4624,2.1573 6.7507,0.0072 -3.9491,6.8449 1.4913,2.6858 3.1745,0.0072 3.7174,-6.4394 2.798,5.3318 3.0297,0.19908 1.5529,-2.6098 -4.445,-8.014 5.5237,-9.5741 5.1508,8.9443 -4.7889,8.1697 1.6108,2.8089 2.5989,-0.18822 3.3953,-5.8313 3.9382,6.8485 3.0731,0.05792 1.5999,-2.7437 -3.7066,-6.4431 6.0159,0.25338 1.6904,-2.5229 -1.4768,-2.6496 L 42.5449,44.3938 37.3,35.2722 h 10.671 l 4.5282,7.8656 2.8306,-0.02172 1.5927,-2.494 -2.9863,-5.3499 h 7.1996 l 1.7556,-2.9283 -1.7556,-2.4614 -7.3154,0.0036 3.3265,-5.7553 -1.7483,-2.6894 -2.6026,-0.0072 -5.1762,8.4556 -10.414,0.0072 5.5924,-9.6899 9.0782,0.0072 1.3936,-2.4614 -1.361,-2.627 -6.129,-0.09 3.598,-6.2367 -1.657,-2.9827 -3.008,0.2896 -3.653,6.3418 -3.323,-5.759 -3.203,0.1701 -1.307,2.2515 4.735,8.7094 -5.354,9.291 -5.737,-9.979 4.565,-7.8513 -1.43,-2.4397 -2.954,-0.1375 -3.156,5.2555 -3.587,-6.2437 -3.414,-0.0616 z" /><path
         id="rect2830-7"
         sodipodi:nodetypes="ccccccccccccccccccccccccccccccccccccccccccccccccccccccccccccccccccccccccccccccccccccccc"
         style="fill:none;stroke-width:0.214078"
         d="m 17.722,4.2537 -0.98578,2.3479 3.7087,6.6928 -6.9428,-0.01792 -1.3126,2.5417 1.1454,1.9468 9.9436,0.39649 5.9506,10.267 -11.916,0.04854 -4.6123,-8.2255 -2.8896,-0.04494 -1.0753,2.0364 3.5519,6.164 h -8.2559 l -1.3472,2.485 1.3886,2.3551 7.7972,0.08274 -3.3683,5.2045 1.1952,2.5297 2.6491,-0.0019 4.6786,-7.8563 h 12.053 l -5.4758,9.8081 -9.6338,0.04331 -1.3828,2.4844 1.2298,1.8465 7.1286,-0.0342 -4.0866,7.1496 1.3824,2.4111 2.6637,-0.0342 3.9831,-6.7068 2.9971,5.5687 2.6456,0.19712 1.3188,-2.2945 -4.5324,-7.9349 6.0472,-10.224 5.5155,9.6833 -4.8289,8.0062 1.4584,2.4088 2.0569,-0.06226 3.6252,-6.1461 4.1587,7.0291 2.7296,0.09871 1.4891,-2.4271 -4.0138,-6.669 6.4481,0.25088 1.3298,-2.2084 -1.4509,-2.6235 -8.7524,0.1967 -5.6493,-9.7762 11.435,-0.08273 4.4487,7.7879 2.5741,0.01986 1.3165,-2.1798 -3.2234,-5.628 7.6937,-0.04137 1.4352,-2.5271 -1.5593,-2.1061 -7.4766,-0.07916 3.3508,-5.9881 -1.5108,-2.4147 -2.2259,-0.04854 -5.2094,8.4549 -11.183,0.17264 6.032,-10.504 8.9602,0.04854 1.2864,-2.1889 -1.2957,-2.2674 -6.2688,-0.0896 3.616,-6.5508 -1.381,-2.6222 -2.748,0.2039 -3.754,6.6101 -3.637,-5.9089 -2.733,0.1684 -1.118,1.8156 4.734,8.7469 -5.798,9.945 -6.091,-10.584 4.65,-7.8981 -1.24,-2.0433 -2.653,-0.1776 -3.349,5.494 -3.607,-6.431 -3.2707,-0.060927 v -2.08e-5 l 0.04137,-0.041366 z" /><path
         id="rect2830-5"
         sodipodi:nodetypes="ccccccccccccccccccccccccccccccccccccccccccccccccccccccccccccccccccccccccccccccccccccc"
         style="fill:url(#linearGradient4492);stroke-width:0.214078"
         d="m 17.009,5.9347 -1.0685,2.4349 3.9299,6.7167 -6.9895,-0.0181 -1.3999,2.5158 1.1985,1.9149 9.8795,0.2751 6.0109,10.44 -11.953,-0.02405 -4.6635,-8.1927 -2.7673,-0.03485 -1.1053,2.0679 3.5502,6.1307 -8.2419,0.0625 -1.3943,2.3226 1.4881,2.3483 h 7.7125 l -3.8429,5.4643 1.3429,2.722 3.0333,0.03982 4.5951,-8.1949 12.103,0.0625 -5.9147,9.5187 -9.4691,-0.03982 -1.618,2.8016 1.4624,2.1573 6.7507,0.0072 -3.9491,6.8449 1.4913,2.6858 3.1745,0.0072 3.7174,-6.4394 2.798,5.3318 3.0297,0.19908 1.5529,-2.6098 -4.445,-8.014 5.5237,-9.5741 5.1508,8.9443 -4.7889,8.1697 1.6108,2.8089 2.5989,-0.18822 3.3953,-5.8313 3.9382,6.8485 3.0731,0.05792 1.5999,-2.7437 -3.7066,-6.4431 6.0159,0.25338 1.6904,-2.5229 -1.4768,-2.6496 -9.1615,-0.17736 -5.7137,-9.4654 11.358,0.03125 4.3095,8.1781 2.8306,-0.02172 1.5927,-2.494 -3.4863,-5.6937 7.6683,0.03125 1.4431,-2.6158 -1.5056,-2.1489 -7.6904,0.0036 3.4515,-6.0366 -1.4983,-2.4082 -2.2588,0.02405 -5.1137,8.4244 -11.226,-0.02405 5.9362,-10.284 9.1407,0.0697 1.1748,-2.2739 -1.1423,-2.2179 -6.4719,-0.15299 3.7386,-6.518 -1.4859,-2.6545 -2.633,0.2427 -3.7773,6.7167 -3.524,-6.0862 -2.844,0.1233 -1.135,1.9702 4.685,8.7247 -5.669,9.762 -6.179,-10.51 4.606,-7.7128 -1.274,-2.2522 -2.547,-0.1063 -3.407,5.5683 -3.68,-6.5878 -3.133,-0.0615 z" /></g><g
       id="g5"
       transform="matrix(0.01196456,0,0,0.00746993,6.5000056,3)"
       style="stroke-width:1.10185"><path
         id="path2043"
         inkscape:connector-curvature="0"
         sodipodi:nodetypes="cccccc"
         style="fill:#e73900;fill-rule:evenodd;stroke-width:1.10185"
         d="M 27.508,312.91 C -40.484,208.53 41.613,199.21 20.672,56.3 c 51.361,67.42 65.691,150.12 87.261,174.57 14.88,19.21 22.21,42.4 20.21,66.22 -0.2,18.85 23.63,41.7 17.11,59.3 -34.64,-27.75 -94.229,-9.66 -117.74,-43.48 z" /><path
         id="path2041"
         inkscape:connector-curvature="0"
         sodipodi:nodetypes="cccccccc"
         style="fill:#e73900;fill-rule:evenodd;stroke-width:1.10185"
         d="M 130.33,343.39 C 130.72,323.4 106.53,314.73 96.8,299.12 80.69,287.19 75.59,268.63 75.23,250.35 73.92,221.12 99.98,46.81 137.94,0 c -14.55,71.88 21.57,167.64 43.88,199.32 15.1,24.61 20.78,52.95 15.34,80.84 -2.67,22.24 -21.1,35.61 -31.07,55.56 -9.97,12.02 -23.54,13.16 -35.76,7.67 z" /><path
         id="path2063"
         inkscape:connector-curvature="0"
         sodipodi:nodetypes="cccccsc"
         style="fill:#e73900;fill-rule:evenodd;stroke-width:1.10185"
         d="m 144.11,353.17 c 5.79,-17.36 -5.66,-44.89 -9.27,-61 -9.78,-14.5 -8.84,-32.02 -4.13,-48.08 6.94,-25.87 8.09,-147.98 120.03,-205.32 -86.82,85.18 -29.17,154.41 -19.77,187.75 5.49,25.33 2.68,51.73 -9.7,74.52 -17.09,31.45 -62.73,48.79 -77.16,52.13 z" /><path
         id="path1305"
         inkscape:connector-curvature="0"
         sodipodi:nodetypes="cccccccc"
         style="fill:#e78c00;fill-rule:evenodd;stroke-width:1.10185"
         d="m 125.67,342.99 c 0.29,-16.32 -18,-23.4 -25.36,-36.14 C 88.12,297.11 84.26,281.96 83.99,267.04 83,243.17 107.31,116.99 126.82,62.65 c -13.31,123.18 20.92,136.86 37.79,162.72 11.43,20.1 15.72,43.23 11.6,66 -2.02,18.16 -10.73,34.71 -18.27,51 -7.54,9.81 -23.03,5.1 -32.27,0.62 z" /><path
         id="path2061"
         inkscape:connector-curvature="0"
         sodipodi:nodetypes="ccccs"
         style="fill:#e78c00;fill-rule:evenodd;stroke-width:1.10185"
         d="m 55.516,319.61 c -69.841,-71.71 6.257,-76.7 -13.113,-175.18 23.003,46.42 42.08,81.29 50.45,114.25 12.4,11.63 55.23,82.68 52.66,95.56 -26.99,-15.37 -69.89,-13.99 -89.997,-34.63 z" /><path
         id="path2051"
         inkscape:connector-curvature="0"
         sodipodi:nodetypes="ccccs"
         style="fill:#e7e100;fill-rule:evenodd;stroke-width:1.10185"
         d="M 69.463,315.29 C 27.685,275.63 58.885,252.34 58.511,202.81 c 11.552,43.35 48.082,54.03 47.612,80.08 6.03,7.79 37.63,63.34 34.99,70.48 -14.05,-11.25 -55.82,-23.05 -71.65,-38.08 z" /><path
         id="path2045"
         inkscape:connector-curvature="0"
         sodipodi:nodetypes="ccccscc"
         style="fill:#e78c00;fill-rule:evenodd;stroke-width:1.10185"
         d="m 136.61,309.94 c -7.34,-10.88 -6.63,-24.02 -3.09,-36.07 5.2,-19.41 28.07,-127.32 60.74,-150.79 -23.59,44.36 7.43,112.59 14.48,137.6 4.12,19.01 5.27,41.49 -7.28,55.92 -18.95,21.78 -42.88,34.47 -56.29,37.51 -8.52,5.98 -5.85,-32.08 -8.56,-44.17 z" /><path
         id="path1310"
         inkscape:connector-curvature="0"
         sodipodi:nodetypes="cccccccc"
         style="fill:#e7e100;fill-rule:evenodd;stroke-width:1.10185"
         d="m 124.81,344.19 c 0.59,-9.99 -10.43,-14.78 -14.62,-22.77 -7.22,-6.26 -9.2,-15.64 -9,-24.78 -0.01,-14.64 -0.51,-105.88 18.03,-128.56 -8.2,35.66 22.69,88.81 32.38,105.07 6.49,12.59 8.54,26.86 5.45,40.69 -1.69,11.07 -7.44,20.99 -12.46,30.77 -4.87,5.82 -14.23,2.55 -19.78,-0.42 z" /><path
         id="path2047"
         inkscape:connector-curvature="0"
         sodipodi:nodetypes="cccccccc"
         style="fill:#e7e100;fill-rule:evenodd;stroke-width:1.10185"
         d="m 133.63,345.46 c 4.75,-6.95 -1.14,-15.18 -0.7,-22.75 -2.5,-7.65 0.12,-15.27 4.23,-21.78 6.32,-10.57 17.44,-89.1 40.63,-97.45 -21.35,22.18 15.72,81.49 15.68,97.42 -0.76,11.89 -15.23,27.96 -23.44,36.61 -6.01,7.26 -17.91,14.23 -25.77,19.12 -6.03,-3.66 -7.91,-6.62 -10.63,-11.17 z" /><path
         id="path2049"
         inkscape:connector-curvature="0"
         sodipodi:nodetypes="cccccc"
         style="fill:#ffff9e;fill-rule:evenodd;stroke-width:1.10185"
         d="m 125.63,337.51 c -14.76,-23.24 -9.28,-49.17 -3.01,-77.45 2.86,19.19 14.77,42.48 21.5,50.12 4.65,5.99 6.94,13.23 6.31,20.67 -0.06,5.89 -3.05,13.02 -5.08,18.51 -10.82,-8.66 -12.38,-1.29 -19.72,-11.85 z" /><path
         id="path2065"
         inkscape:connector-curvature="0"
         sodipodi:nodetypes="ccscc"
         style="fill:#ffff9e;fill-rule:evenodd;stroke-width:1.10185"
         d="m 142.22,325.99 c 11.43,-25.05 0.11,-44.76 26.31,-64.41 -7.82,18.21 10.07,46.97 8.12,56.95 -3.27,16.77 -25.88,29.25 -31.6,30.54 1.37,-13.79 -7.68,-11.17 -2.83,-23.08 z" /><path
         id="path2067"
         inkscape:connector-curvature="0"
         sodipodi:nodetypes="ccc"
         style="fill:#ffff9e;fill-rule:evenodd;stroke-width:1.10185"
         d="M 60.603,244.02 C 122.05,321.73 120.69,282.5 145.06,349.05 28.91,297.34 81.043,302 60.603,244.02 Z" /></g><path
       id="path5216"
       style="color:#000000;fill:#000000;fill-rule:evenodd;stroke:#000000;stroke-width:0.0286542;stroke-linejoin:round"
       inkscape:connector-curvature="0"
       d="m 5.3356896,5.2270415 c -0.03995,0.3706495 -0.3168425,0.3834474 -0.3349291,0.5428597 -0.018022,0.1592985 0.066401,0.1780549 0.098712,0.1809405 0.032552,0.00291 0.1029471,-0.014254 0.1070358,-0.08399 0.00395,-0.065992 -0.018983,-0.087788 0.016578,-0.1856192 -0.036005,0.060384 -0.076627,0.086945 -0.1229387,0.090326 0.039839,0.025991 0.058791,0.049818 0.059671,0.061173 0.00103,0.012442 -0.00959,0.066323 -0.058993,0.061911 C 5.0476027,5.8898883 5.0348225,5.8386894 5.0508036,5.7671513 5.0675368,5.6919808 5.2623889,5.5839195 5.2883863,5.5076547 5.2744617,5.6635665 5.2222873,6.1191328 5.2245817,6.1037063 5.1682104,6.5816349 5.0979316,6.8814239 5.0594264,7.3125623 5.0211009,7.7416884 4.9854496,8.1436088 4.9706466,8.7923628 4.8801415,8.805519 4.8061697,8.8736699 4.797865,8.9666566 4.7881065,9.0759209 4.8710497,9.1727617 4.9828906,9.1827503 5.0947923,9.1927443 5.1930379,9.1120851 5.2027963,9.0028212 5.2111169,8.909657 5.150576,8.8294931 5.0636354,8.8006677 5.1640313,8.159558 5.2001671,7.7576809 5.2384926,7.3285548 c 0.038505,-0.4311384 0.021979,-0.73868 0.051193,-1.2190341 -4.773e-4,0.015589 0.028906,-0.442019 0.04283,-0.5979248 0.012011,0.079653 0.1851748,0.2205817 0.188384,0.297534 0.003,0.073234 -0.01859,0.1213625 -0.071882,0.1166029 -0.049403,-0.00441 -0.05079,-0.059364 -0.047574,-0.071428 0.00288,-0.011019 0.025693,-0.031116 0.069506,-0.049636 -0.044918,-0.011532 -0.080192,-0.044868 -0.1049865,-0.1106824 0.017661,0.102585 -0.0087,0.119979 -0.016578,0.1856192 -0.00827,0.069364 0.057906,0.098721 0.090458,0.1016287 0.032309,0.00289 0.1193211,-5.598e-4 0.1297593,-0.1605358 C 5.5800533,5.6606046 5.3092617,5.5988927 5.3356901,5.2270356 Z M 5.0106512,8.8719331 c 0.063953,0.00571 0.1110956,0.060754 0.1055239,0.1231401 -0.00558,0.062444 -0.06177,0.1087358 -0.1257227,0.1030242 -0.063891,-0.00571 -0.1114776,-0.061266 -0.1059006,-0.1237106 0.00557,-0.062386 0.062207,-0.10816 0.1260994,-0.1024537 z"
       inkscape:transform-center-x="-0.15914375"
       inkscape:transform-center-y="-1.7842335" /></g></svg>
